HIERARCHY
ROOT SpineBase
{
  OFFSET 0.000000 0.000000 0.000000
  CHANNELS 6 Xposition Yposition Zposition Zrotation Xrotation Yrotation
  JOINT SpineMid
  {
    OFFSET -0.000000 28.489372 0.000000
    CHANNELS 3 Zrotation Xrotation Yrotation
    JOINT SpineShoulder
    {
      OFFSET 0.001476 21.202957 -0.616571
      CHANNELS 3 Zrotation Xrotation Yrotation
      JOINT Neck
      {
        OFFSET -0.001319 7.027578 -0.498966
        CHANNELS 3 Zrotation Xrotation Yrotation
        JOINT Head
        {
          OFFSET 1.251814 14.475680 -0.658080
          CHANNELS 3 Zrotation Xrotation Yrotation
          End Site
          {
            OFFSET 0 0 0
          }
        }
      }
      JOINT ShoulderLeft
      {
        OFFSET -16.362840 -2.522584 -3.928449
        CHANNELS 3 Zrotation Xrotation Yrotation
        JOINT ElbowLeft
        {
          OFFSET -4.274653 -25.025200 -2.036343
          CHANNELS 3 Zrotation Xrotation Yrotation
          JOINT WristLeft
          {
            OFFSET 1.863742 -22.148280 -7.593010
            CHANNELS 3 Zrotation Xrotation Yrotation
            JOINT HandLeft
            {
              OFFSET 2.372083 -4.434798 -0.714198
              CHANNELS 3 Zrotation Xrotation Yrotation
              JOINT HandTipLeft
              {
                OFFSET 0.097002 -7.253949 -4.049902
                CHANNELS 3 Zrotation Xrotation Yrotation
                End Site
                {
                  OFFSET 0 0 0
                }
              }
              JOINT ThumbLeft
              {
                OFFSET 3.968501 -1.926893 -2.096452
                CHANNELS 3 Zrotation Xrotation Yrotation
                End Site
                {
                  OFFSET 0 0 0
                }
              }
            }
          }
        }
      }
      JOINT ShoulderRight
      {
        OFFSET 16.370697 -3.091253 1.326942
        CHANNELS 3 Zrotation Xrotation Yrotation
        JOINT ElbowRight
        {
          OFFSET 1.449973 -25.417613 0.576991
          CHANNELS 3 Zrotation Xrotation Yrotation
          JOINT WristRight
          {
            OFFSET -0.229480 -24.688255 -5.177842
            CHANNELS 3 Zrotation Xrotation Yrotation
            JOINT HandRight
            {
              OFFSET -0.768850 -5.704367 -0.469065
              CHANNELS 3 Zrotation Xrotation Yrotation
              JOINT HandTipRight
              {
                OFFSET 0.253942 -7.923407 -2.223939
                CHANNELS 3 Zrotation Xrotation Yrotation
                End Site
                {
                  OFFSET 0 0 0
                }
              }
              JOINT ThumbRight
              {
                OFFSET 2.958638 1.112789 -1.545021
                CHANNELS 3 Zrotation Xrotation Yrotation
                End Site
                {
                  OFFSET 0 0 0
                }
              }
            }
          }
        }
      }
    }
  }
  JOINT HipLeft
  {
    OFFSET -7.212878 0.921779 -4.269401
    CHANNELS 3 Zrotation Xrotation Yrotation
    JOINT KneeLeft
    {
      OFFSET -8.956023 -25.990740 -4.784438
      CHANNELS 3 Zrotation Xrotation Yrotation
      JOINT AnkleLeft
      {
        OFFSET -4.578431 -32.670133 5.699268
        CHANNELS 3 Zrotation Xrotation Yrotation
        JOINT FootLeft
        {
          OFFSET -2.092362 -7.532557 -5.873265
          CHANNELS 3 Zrotation Xrotation Yrotation
          End Site
          {
            OFFSET 0 0 0
          }
        }
      }
    }
  }
  JOINT HipRight
  {
    OFFSET 7.267570 0.580788 -2.467771
    CHANNELS 3 Zrotation Xrotation Yrotation
    JOINT KneeRight
    {
      OFFSET -0.634540 -27.405489 7.994239
      CHANNELS 3 Zrotation Xrotation Yrotation
      JOINT AnkleRight
      {
        OFFSET -1.868076 -33.024453 10.324892
        CHANNELS 3 Zrotation Xrotation Yrotation
        JOINT FootRight
        {
          OFFSET 4.354362 -7.285193 -2.182713
          CHANNELS 3 Zrotation Xrotation Yrotation
          End Site
          {
            OFFSET 0 0 0
          }
        }
      }
    }
  }
}
MOTION
Frames: 12
Frame Time: 0.033333
0.007854 68.194374 372.619337 0.000000 0.000000 -7.092185 -0.000000 0.000000 7.092185 -0.000000 0.000000 0.000000 -0.000000 0.000000 0.000000 0.000000 0.000000 0.000000 -0.000000 0.000000 0.000000 -0.000000 0.000000 0.000000 -0.000000 0.000000 0.000000 -0.000000 0.000000 0.000000 0.000000 0.000000 0.000000 0.000000 0.000000 0.000000 -0.000000 0.000000 0.000000 -0.000000 0.000000 0.000000 -0.000000 0.000000 0.000000 -0.000000 0.000000 0.000000 0.000000 0.000000 0.000000 0.000000 0.000000 0.000000 -0.000000 0.000000 7.092185 -0.000000 0.000000 0.000000 -0.000000 0.000000 0.000000 0.000000 0.000000 0.000000 -0.000000 0.000000 7.092185 -0.000000 0.000000 0.000000 -0.000000 0.000000 0.000000 0.000000 0.000000 0.000000
0.356058 68.166341 372.874106 -0.619106 0.179733 -5.946456 0.634396 -0.114617 5.948061 -0.000000 0.000000 0.000000 0.371059 1.081860 -0.080250 0.000000 0.000000 0.000000 -0.000000 0.000000 0.000000 -1.237309 -0.793064 0.350046 -2.488350 2.281695 1.145958 0.772895 -2.431008 0.152310 0.000000 0.000000 0.000000 0.000000 0.000000 0.000000 0.542250 -0.947642 -0.037250 -0.542940 0.947246 0.046222 -4.877424 -0.421451 0.437781 5.486408 -2.978316 -0.745937 0.000000 0.000000 0.000000 0.000000 0.000000 0.000000 0.634396 -0.114617 5.948061 -0.000000 0.000000 0.000000 3.518371 13.753217 -6.448635 0.000000 0.000000 0.000000 0.634396 -0.114617 5.948061 -0.000000 0.000000 0.000000 -1.831735 1.705659 1.603736 0.000000 0.000000 0.000000
0.671471 68.124032 373.111984 -1.191985 0.318548 -5.020741 -0.161083 -0.134294 4.982455 -0.073459 -0.055952 -0.063207 2.009263 1.869785 -0.052611 0.000000 0.000000 0.000000 0.737539 -1.430365 0.371510 -1.685985 -0.237459 0.430647 -4.597076 4.431047 2.378655 1.611311 -4.863004 -0.026083 0.000000 0.000000 0.000000 0.000000 0.000000 0.000000 2.329105 -1.865749 0.041114 -1.362381 0.554699 0.211636 -8.542273 0.566794 0.838417 9.953671 -5.243564 -1.289678 0.000000 0.000000 0.000000 0.000000 0.000000 0.000000 1.215297 -0.212946 5.026314 -0.933709 1.152251 -0.315174 7.980143 22.104305 -11.413687 0.000000 0.000000 0.000000 2.101608 -0.954093 5.292324 -1.962582 1.282909 -0.615863 -2.275981 2.579487 3.329366 0.000000 0.000000 0.000000
0.954094 68.067447 373.332970 -1.718861 0.416656 -4.312552 -0.223956 -0.171828 4.258409 -0.098280 -0.074442 -0.090472 2.660684 2.605401 -0.077209 0.000000 0.000000 0.000000 0.902239 -2.037972 0.537136 -2.296014 -0.351521 0.621524 -6.344367 6.437154 3.644914 2.506156 -7.270972 -0.477230 0.000000 0.000000 0.000000 0.000000 0.000000 0.000000 3.096537 -2.516472 0.063928 -1.717054 0.816974 0.306581 -11.636574 0.978187 1.177548 13.354239 -6.839686 -1.614097 0.000000 0.000000 0.000000 0.000000 0.000000 0.000000 2.304212 -1.128718 4.543878 -1.774703 2.528697 -0.627002 11.403208 27.742846 -15.401593 0.000000 0.000000 0.000000 2.960386 -1.262969 4.695269 -2.752473 1.726309 -0.850379 -3.129724 3.400255 4.576021 0.000000 0.000000 0.000000
1.203926 67.996586 373.537067 -2.199992 0.474285 -3.819456 -0.273768 -0.191462 3.751279 -0.115285 -0.086785 -0.114656 3.080417 3.212746 -0.097014 0.000000 0.000000 0.000000 0.930300 -2.575713 0.688868 -2.748486 -0.458681 0.791393 -7.760618 8.299378 4.903796 3.471198 -9.650171 -1.152899 0.000000 0.000000 0.000000 0.000000 0.000000 0.000000 3.598409 -2.978921 0.081249 -1.855930 1.065375 0.387105 -13.880242 1.485861 1.428925 15.692839 -7.785615 -1.715716 0.000000 0.000000 0.000000 0.000000 0.000000 0.000000 2.809270 -1.337260 4.110703 -2.069062 3.121037 -0.769509 14.033943 31.141735 -18.267246 0.000000 0.000000 0.000000 3.702010 -1.439597 4.292017 -3.416963 2.034825 -1.043921 -3.781503 3.951490 5.539359 0.000000 0.000000 0.000000
1.420968 67.911448 373.724272 -2.635661 0.491670 -3.539290 -0.310082 -0.194227 3.458637 -0.124565 -0.093100 -0.135660 3.270240 3.694521 -0.110392 0.000000 0.000000 0.000000 0.821158 -3.044677 0.826762 -3.041673 -0.556285 0.937369 -8.882567 10.022746 6.125816 4.539991 -12.011646 -2.014696 0.000000 0.000000 0.000000 0.000000 0.000000 0.000000 3.834492 -3.253207 0.090550 -1.780263 1.300358 0.450217 -15.290920 2.079827 1.575940 17.002029 -8.076760 -1.603969 0.000000 0.000000 0.000000 0.000000 0.000000 0.000000 3.194307 -1.447376 3.878873 -2.214259 3.584673 -0.884227 15.864030 33.024076 -20.152136 0.000000 0.000000 0.000000 4.331199 -1.472323 4.077343 -3.956887 2.206375 -1.200911 -4.228800 4.258646 6.220085 0.000000 0.000000 0.000000
1.586180 67.773423 373.903585 -3.026091 0.358616 -3.717685 -0.329111 -0.175150 3.623614 -0.121274 -0.096231 -0.152892 3.132230 4.408477 -0.141634 0.000000 0.000000 0.000000 0.570376 -3.383420 0.958944 -3.670164 -1.014858 1.177868 -9.138344 11.847398 7.057444 7.970524 -14.169454 -3.694580 0.000000 0.000000 0.000000 0.000000 0.000000 0.000000 3.525298 -3.214306 0.074229 -1.369825 2.153188 0.529924 -13.553259 2.570419 1.157193 15.215433 -6.501543 -1.001542 0.000000 0.000000 0.000000 0.000000 0.000000 0.000000 3.384941 -1.338606 4.100737 -2.017139 3.934947 -0.976315 16.130978 33.111806 -20.399628 0.000000 0.000000 0.000000 4.778555 -1.083397 4.260714 -4.285600 2.034164 -1.302805 -4.287884 4.557411 6.634815 0.000000 0.000000 0.000000
1.731328 67.642576 374.054613 -3.402490 0.265730 -3.858481 -0.359533 -0.128792 3.752339 -0.127524 -0.080140 -0.170055 2.934297 4.772285 -0.143413 0.000000 0.000000 0.000000 0.283016 -3.783084 1.083725 -3.861139 -1.179712 1.313419 -8.963721 13.826681 8.145981 8.676228 -16.599660 -4.832383 0.000000 0.000000 0.000000 0.000000 0.000000 0.000000 3.259239 -3.083412 0.074476 -0.742601 2.397789 0.532392 -13.643436 2.742303 1.078589 14.525314 -4.911577 -0.622917 0.000000 0.000000 0.000000 0.000000 0.000000 0.000000 3.529727 -1.168339 4.254073 -1.797719 4.078515 -1.027822 14.954898 31.159260 -18.860137 0.000000 0.000000 0.000000 5.189882 -0.698051 4.400274 -4.547965 1.842012 -1.389908 -4.276996 4.246850 6.605727 0.000000 0.000000 0.000000
1.872556 67.526640 374.202997 -3.708349 0.188677 -4.041230 -0.356784 -0.066236 3.926828 -0.105254 -0.070971 -0.180842 2.504938 4.708745 -0.121651 0.000000 0.000000 0.000000 -0.298632 -4.070530 1.181888 -3.394076 -1.174129 1.299320 -10.465008 15.016840 9.484203 10.390951 -19.842223 -5.937605 0.000000 0.000000 0.000000 0.000000 0.000000 0.000000 2.768230 -2.823161 0.073404 0.477302 2.037018 0.398112 -14.938867 4.182351 1.298429 13.836249 -2.475832 0.174446 0.000000 0.000000 0.000000 0.000000 0.000000 0.000000 3.567882 -0.963950 4.437279 -1.543800 4.109269 -1.060787 15.401915 30.889805 -19.184951 0.000000 0.000000 0.000000 5.468933 -0.316212 4.563181 -4.718233 1.636208 -1.452986 -4.026453 3.967390 6.486442 0.000000 0.000000 0.000000
1.967108 67.443444 374.296637 -3.900381 0.172114 -4.448625 -0.329820 -0.025883 4.330793 -0.084183 -0.047317 -0.185340 1.708737 4.096225 -0.080484 0.000000 0.000000 0.000000 -1.087042 -4.134680 1.231451 -2.202379 -0.749442 1.155806 -11.729317 15.131140 10.240880 10.724581 -22.484739 -6.561318 0.000000 0.000000 0.000000 0.000000 0.000000 0.000000 2.170724 -2.517282 0.075041 0.721818 2.024886 0.499712 -14.292219 5.125712 1.094285 13.979583 -3.573637 0.419183 0.000000 0.000000 0.000000 0.000000 0.000000 0.000000 3.539607 -0.829118 4.848303 -1.349256 4.058361 -1.081341 16.118280 30.661696 -19.742443 0.000000 0.000000 0.000000 5.681159 -0.026462 4.968923 -4.865147 1.469000 -1.507465 -3.835685 3.506186 6.219018 0.000000 0.000000 0.000000
2.029001 67.389809 374.332182 -4.089290 0.255645 -5.068232 -0.331453 -0.006642 4.948788 -0.083962 -0.015316 -0.192135 1.036655 3.329581 -0.043752 0.000000 0.000000 0.000000 -1.802706 -4.146371 1.258613 -0.958031 0.061274 1.077546 -12.009383 14.311972 10.095577 10.407069 -22.482351 -6.545525 0.000000 0.000000 0.000000 0.000000 0.000000 0.000000 1.732328 -2.293831 0.088197 1.188600 1.913118 0.519602 -14.408402 7.145226 1.045349 14.050646 -3.195347 1.107460 0.000000 0.000000 0.000000 0.000000 0.000000 0.000000 3.584783 -0.885216 5.504788 -1.173310 4.064122 -1.114052 16.887693 30.469404 -20.396448 0.000000 0.000000 0.000000 5.836012 0.132184 5.579196 -4.892830 1.330368 -1.524523 -3.844205 3.064324 5.986043 0.000000 0.000000 0.000000
2.063372 67.371628 374.303604 -4.239230 0.404148 -5.737200 -0.305553 -0.020430 5.619118 -0.070481 0.009485 -0.195487 0.261969 2.279597 -0.014915 0.000000 0.000000 0.000000 -2.451838 -3.957888 1.246192 -0.325482 -0.021027 1.116109 -10.584414 15.269151 10.358078 10.565230 -21.968414 -7.296087 0.000000 0.000000 0.000000 0.000000 0.000000 0.000000 1.361504 -2.162594 0.097088 1.277660 1.472768 0.598696 -13.935450 9.260750 0.998434 13.970870 -6.030244 1.534599 0.000000 0.000000 0.000000 0.000000 0.000000 0.000000 3.674778 -1.016157 6.208001 -1.051709 3.968407 -1.120758 17.714458 30.368234 -21.152997 0.000000 0.000000 0.000000 6.002462 0.144902 6.259931 -4.919409 1.308224 -1.537740 -3.616973 2.490768 5.571232 0.000000 0.000000 0.000000
